# xmcd
# 
# Track frame offsets:
#     150
#     18041
#     37540
#     54728
#     72648
#     92781
#     109453
#     128300
#     144011
# 
# Disc length: 2211
# 
# Revision: 0
# Processed by: cddbd v1.5.2PL0 Copyright (c) Steve Scherf et al.
# Submitted via: fre:ac v1.0.17
# 
DISCID=6b08a109
DTITLE=陳奕迅 - 七 DISC 2
DYEAR=2014
DGENRE=Pop
TTITLE0=你的背包
TTITLE1=低等動物
TTITLE2=男人的錯
TTITLE3=LAST ORDER
TTITLE4=沒有手機的日子
TTITLE5=要你的
TTITLE6=全世界失眠
TTITLE7=兄妹
TTITLE8=我們都寂寞
EXTD=
EXTT0=
EXTT1=
EXTT2=
EXTT3=
EXTT4=
EXTT5=
EXTT6=
EXTT7=
EXTT8=
PLAYORDER=
